<?xml version="1.0" encoding="utf-8"?>
<svg viewBox="0 0 511.999 511.999" width="511.999" height="511.999" fill="#000000" xmlns="http://www.w3.org/2000/svg">
  <g>
    <g>
      <path d="M409.845,393.716c-3.653-2.628-8.752-1.796-11.38,1.862c-1.542,2.144-3.143,4.27-4.761,6.319 c-2.79,3.534-2.187,8.662,1.347,11.452c1.496,1.181,3.278,1.754,5.048,1.754c2.409,0,4.796-1.063,6.406-3.102 c1.768-2.24,3.518-4.563,5.202-6.907C414.336,401.439,413.502,396.343,409.845,393.716z"/>
    </g>
  </g>
  <g style="" transform="matrix(0.976268, 0, 0, 0.978951, 6.000002, 6.206885)">
    <g>
      <path d="M504.199,32.779c-1.107-3.48-4.393-5.821-8.041-5.682c-3.252,0.107-6.076,2.136-7.274,5.085 c-0.04,0.049-0.085,0.091-0.124,0.141c-23.31,29.502-49.925,50.839-79.104,63.419c-24.679,10.641-67.183,22.155-73.636,23.879 c-24.847-11.399-52.051-17.444-79.818-17.444c-27.132,0-53.752,5.772-78.151,16.683c-0.746-0.507-1.584-0.906-2.506-1.148 c-0.476-0.125-47.847-12.62-74.47-24.1C71.894,81.031,45.28,59.694,21.97,30.193c-0.074-0.092-0.154-0.175-0.232-0.264 c-0.058-0.067-0.114-0.134-0.174-0.199c-0.262-0.285-0.537-0.549-0.83-0.789c-0.035-0.028-0.071-0.053-0.105-0.08 c-0.296-0.235-0.603-0.446-0.923-0.634c-0.037-0.022-0.072-0.046-0.109-0.067c-0.339-0.192-0.69-0.356-1.049-0.496 c-0.07-0.027-0.139-0.053-0.21-0.078c-0.365-0.132-0.737-0.242-1.115-0.321c-0.047-0.01-0.096-0.014-0.142-0.024 c-0.383-0.072-0.769-0.117-1.158-0.134c-0.028-0.001-0.054-0.009-0.082-0.01c-0.011,0-0.022,0.002-0.032,0.001 c-0.409-0.012-0.819,0.013-1.226,0.062c-0.047,0.005-0.095,0.011-0.141,0.017c-0.413,0.058-0.823,0.146-1.226,0.267 c-0.808,0.245-1.586,0.621-2.309,1.127c-0.017,0.012-0.034,0.024-0.051,0.036c-0.112,0.079-0.226,0.153-0.336,0.239 c-0.565,0.447-1.046,0.957-1.459,1.507c-0.023,0.03-0.047,0.06-0.07,0.09c-0.241,0.332-0.457,0.676-0.644,1.035 c-0.023,0.045-0.044,0.09-0.066,0.136c-0.187,0.376-0.352,0.762-0.478,1.159c0,0,0,0.001-0.001,0.001 C1.556,52.438-6.601,91.66,8.937,133.468c14.027,37.751,40.656,59.497,50.68,67.683c7.499,6.125,14.679,10.964,21.565,14.899 c-10.846,24.426-16.346,50.465-16.346,77.494c0,105.519,85.846,191.365,191.366,191.365c32.925,0,65.399-8.503,93.909-24.589 c3.922-2.214,5.308-7.186,3.095-11.109c-2.214-3.921-7.186-5.308-11.109-3.095c-26.07,14.71-55.772,22.485-85.895,22.485 c-94.535,0-171.796-75.326-174.946-169.108c14.003,27.195,42.346,45.85,74.982,45.85c22.061,0,43.26-8.801,58.893-24.016 c0.479,1.313,0.959,2.628,1.417,3.967c0.117,0.346,0.27,0.671,0.428,0.99c0.801,11.613,4.312,33.164,9.237,52.199 c8.529,32.962,17.778,47.662,29.988,47.662c12.21,0,21.459-14.7,29.988-47.662c5.09-19.669,8.668-42.02,9.309-53.322 c0.367-1.075,0.755-2.127,1.137-3.184c15.565,14.817,36.475,23.366,58.221,23.366c33.743,0,62.904-19.936,76.363-48.641 c-0.41,23.468-5.379,46.168-14.809,67.513c-1.82,4.119,0.045,8.934,4.164,10.754c1.071,0.474,2.19,0.698,3.29,0.698 c3.13,0,6.117-1.813,7.462-4.862c10.776-24.392,16.24-50.387,16.24-77.261c0-27.119-5.537-53.208-16.438-77.673 c6.791-3.902,13.867-8.686,21.253-14.717c10.025-8.187,36.653-29.932,50.68-67.684C518.601,91.66,510.443,52.438,504.199,32.779z M416.115,110.716c20.312-8.757,39.407-21.36,57.091-37.6c-3.893,7.12-8.304,13.836-13.225,20.112 c-23.635,30.147-52.795,42.344-81.407,53.192c-6.905-5.747-14.172-10.974-21.745-15.654 C373.537,125.957,398.644,118.25,416.115,110.716z M94.617,108.587c18.75,8.085,46.296,16.369,62.813,21.056 c-8.288,4.993-16.22,10.63-23.72,16.884c-28.703-10.874-57.978-23.053-81.691-53.299c-5.351-6.824-10.091-14.173-14.225-21.992 C55.402,87.356,74.408,99.873,94.617,108.587z M156.24,329.033c-37.491,0-67.993-30.502-67.993-67.993 c0-13.043,3.644-25.53,10.563-36.402c8.32,3.425,16.18,5.884,23.631,8.214c0.919,0.287,1.834,0.574,2.747,0.861 c-3.489,6.099-5.317,12.963-5.317,20.1c0,22.386,18.213,40.599,40.599,40.599c12.484,0,24.382-5.857,32.043-15.694 c5.907,7.839,11.159,16.554,15.733,26.121C195.288,320.266,176.566,329.033,156.24,329.033z M136.179,253.814 c0-5.224,1.631-10.199,4.717-14.388c0.064-0.087,0.116-0.178,0.176-0.266c10.254,4.005,20.514,9.338,31.395,18.396 c3.302,2.75,6.459,5.706,9.493,8.833c-0.736,0.5-1.405,1.122-1.965,1.878c-4.638,6.252-11.755,9.838-19.526,9.838 C147.076,278.105,136.179,267.209,136.179,253.814z M220.514,292.878c-9.9-19.23-22.49-35.261-37.613-47.854 c-19.91-16.575-38.05-22.249-55.593-27.736c-17.648-5.519-35.899-11.226-57.375-28.768c-9.941-8.118-33.223-27.131-45.709-60.732 c-8.338-22.436-8.983-44.132-6.951-61.695c5.789,13.532,13.115,25.977,21.912,37.196c27.882,35.566,62.843,48.734,93.687,60.353 c27.961,10.533,52.11,19.629,69.17,42.464C217.771,227.16,223.951,256.272,220.514,292.878z M271.306,370.807 c-7.003,28.544-13.033,36.524-15.103,38.542c-2.07-2.018-8.1-9.998-15.105-38.544c-5.211-21.236-7.987-42.02-7.987-48.858 c0-12.732,10.359-23.091,23.091-23.091c9.91,0,18.356,6.286,21.626,15.071c0.444,2.646,0.939,5.328,1.466,8.032 C279.29,328.809,276.516,349.581,271.306,370.807z M274.7,287.172c-5.52-2.947-11.816-4.625-18.498-4.625 c-6.851,0-13.298,1.761-18.917,4.85c2.387-37.554-5.021-68.086-22.178-91.052c-16.958-22.698-39.404-33.572-63.657-43.069 c30.129-22.51,66.897-34.792,104.753-34.792c37.818,0.001,74.5,12.245,104.606,34.692c-24.352,9.519-46.896,20.39-63.915,43.169 C279.771,219.264,272.356,249.722,274.7,287.172z M354.857,329.033c-20.024,0-38.478-8.521-51.411-23.521 c4.277-9.047,9.162-17.331,14.623-24.848c7.662,8.656,18.789,13.747,30.426,13.747c22.386,0,40.599-18.213,40.599-40.599 c0-6.821-1.674-13.389-4.866-19.28c1.769-0.564,3.544-1.122,5.332-1.681c7.237-2.264,14.861-4.651,22.916-7.923 c6.799,10.803,10.375,23.185,10.375,36.112C422.85,298.531,392.348,329.033,354.857,329.033z M328.631,267.854 c3.457-3.681,7.087-7.122,10.902-10.299c10.036-8.356,19.545-13.534,29.009-17.432c2.768,4.04,4.244,8.75,4.244,13.69 c0,13.394-10.896,24.291-24.291,24.291c-7.771,0-14.888-3.586-19.526-9.838C328.862,268.122,328.745,267.99,328.631,267.854z M487.777,127.787c-12.485,33.601-35.767,52.614-45.71,60.732c-21.477,17.541-39.727,23.248-57.375,28.767 c-17.543,5.487-35.684,11.161-55.593,27.736c-15.124,12.594-27.712,28.621-37.613,47.855 c-3.437-36.607,2.743-65.718,18.474-86.772c17.06-22.836,41.208-31.933,69.169-42.466c30.845-11.619,65.804-24.788,93.687-60.352 c8.798-11.22,16.123-23.665,21.912-37.197C496.759,83.656,496.114,105.352,487.777,127.787z" style="stroke-width: 8.18323px;"/>
      <path d="M 506.896 134.895 C 492.246 173.519 464.994 196.136 454.969 204.323 C 447.435 210.464 442.298 213.916 436.314 217.556 C 447.348 242.429 451.658 266 451.658 293.544 C 451.658 320.839 445.976 347.659 435.07 372.456 C 434.053 374.516 432.241 376.695 430.467 377.827 C 428.684 378.967 426.01 379.759 423.864 379.759 C 422.362 379.759 420.417 379.32 418.92 378.711 C 416.168 377.3 413.466 374.558 412.449 371.932 C 411.432 369.306 411.583 365.458 412.667 362.561 C 421.97 341.606 424.216 330.115 426.107 312.974 C 409.896 334.662 389.754 349.435 354.856 349.435 C 334.761 349.435 314.824 342.057 299.253 329.648 C 298.101 341.898 294.782 361.577 290.15 379.508 C 285.822 396.191 281.164 408.707 276.039 416.854 C 270.701 425.337 263.462 430.237 256.201 430.237 C 248.94 430.237 241.701 425.337 236.363 416.854 C 231.237 408.707 226.58 396.191 222.252 379.508 C 217.469 360.99 214.116 340.796 213.058 328.648 C 197.303 341.663 176.86 349.435 156.238 349.435 C 122.477 349.435 102.816 335.663 86.532 315.059 C 91.364 354.706 106.295 386.221 137.307 416.277 C 168.32 446.334 209.756 464.509 256.202 464.509 C 285.807 464.509 314.504 457.065 340.087 442.552 C 342.864 441.191 346.678 440.666 349.391 441.422 C 352.103 442.178 355.097 444.601 356.77 447.201 C 358.131 449.978 358.656 453.792 357.901 456.505 C 357.145 459.217 354.722 462.211 352.122 463.884 C 323.125 480.167 289.645 489.001 256.202 489.001 C 202.605 489.001 153.222 466.855 118.056 431.689 C 82.89 396.523 60.744 347.141 60.744 293.544 C 60.744 266.092 65.963 241.636 75.996 217.745 C 69.917 214.066 64.679 210.557 57.029 204.32 C 47.005 196.134 19.752 173.516 5.102 134.893 C -10.377 92.354 -2.545 52.154 3.727 32.093 L 3.727 32.06 L 3.89 31.574 C 3.894 31.561 3.898 31.548 3.902 31.535 L 4.354 30.111 L 4.492 30.054 C 4.525 29.983 4.558 29.915 4.59 29.849 C 4.604 29.82 4.663 29.699 4.718 29.588 C 4.987 29.086 5.426 28.399 5.744 27.954 C 5.775 27.913 5.786 27.9 5.789 27.896 C 6.35 27.171 7.216 26.27 8 25.623 C 8.256 25.432 8.45 25.299 8.496 25.264 C 8.513 25.252 8.544 25.231 8.561 25.219 C 9.567 24.547 10.935 23.886 12.039 23.525 C 12.601 23.363 13.355 23.203 13.913 23.12 C 13.97 23.112 14.01 23.107 14.094 23.098 C 14.621 23.038 15.252 23.004 15.822 23.007 C 15.263 23.031 15.61 23.041 15.987 23.008 C 16.544 23.098 16.602 23.107 16.102 23.019 C 16.638 23.048 17.426 23.149 17.95 23.243 C 17.924 23.239 17.901 23.236 17.882 23.233 C 17.926 23.24 17.989 23.25 18.072 23.263 C 18.609 23.382 19.242 23.566 19.722 23.736 C 19.828 23.774 19.95 23.819 20.035 23.852 C 20.516 24.045 21.135 24.336 21.617 24.602 C 21.801 24.715 21.869 24.758 21.801 24.713 C 22.239 24.978 22.764 25.338 23.173 25.657 C 23.102 25.606 23.181 25.665 23.327 25.776 C 23.74 26.123 24.222 26.581 24.573 26.957 C 24.698 27.097 24.771 27.182 24.815 27.232 C 24.828 27.25 24.985 27.427 25.18 27.656 C 48.165 56.83 73.984 77.556 102.695 89.855 C 129.03 101.235 176.11 113.63 176.584 113.754 C 177.866 114.128 177.645 114.105 178.18 114.335 C 202.98 103.292 228.636 98.085 256.202 98.085 C 284.413 98.085 311.469 104.143 336.372 115.29 C 346.078 112.671 383.632 102.53 408.036 91.985 C 436.685 79.713 462.441 59.067 485.389 29.99 L 485.093 30.642 C 485.204 30.397 485.327 30.149 485.46 29.9 C 485.485 29.869 485.509 29.838 485.534 29.807 C 485.79 29.519 485.863 29.442 485.714 29.595 L 485.514 29.8 C 486.465 28.055 487.914 26.272 489.394 25.229 C 491.112 24.019 493.777 23.179 496.012 23.008 C 498.531 23.036 501.573 23.88 503.496 25.242 C 505.418 26.603 507.229 29.188 508.099 31.54 C 514.396 51.402 522.522 91.956 506.896 134.895 Z M 500.3 34.019 C 500.063 32.892 499.676 32.564 498.766 31.92 C 497.858 31.276 497.441 31.022 496.314 31.186 C 495.299 31.124 494.914 31.35 494.107 31.919 C 493.303 32.485 492.97 32.763 492.675 33.722 L 492.505 34.275 L 492.054 34.769 C 492.012 34.815 491.984 34.846 491.965 34.867 C 468.33 64.693 440.923 86.637 411.276 99.499 C 386.322 110.236 343.536 121.848 337.076 123.574 L 335.649 123.955 L 334.314 123.34 C 309.876 112.079 283.525 106.269 256.202 106.269 C 229.504 106.269 203.719 111.816 179.721 122.595 L 177.546 123.572 L 175.751 122.244 C 175.276 121.892 175.068 121.78 174.506 121.67 C 174.028 121.544 126.366 108.949 99.455 97.369 C 69.804 84.506 42.411 62.571 18.781 32.756 C 18.758 32.733 18.804 32.786 18.661 32.626 C 18.58 32.532 18.551 32.495 18.557 32.505 C 18.385 32.311 18.328 32.254 18.189 32.144 C 18.167 32.127 18.224 32.171 18.085 32.065 C 17.902 31.914 17.831 31.865 17.633 31.755 C 17.485 31.662 17.594 31.729 17.575 31.717 C 17.382 31.601 17.298 31.563 17.061 31.476 C 17.006 31.455 17.008 31.455 16.979 31.445 C 16.73 31.351 16.602 31.308 16.386 31.27 C 16.598 31.298 16.531 31.29 16.217 31.24 C 16.055 31.208 16.015 31.201 15.773 31.195 C 15.697 31.183 15.631 31.172 15.575 31.163 C 15.627 31.161 15.82 31.154 15.573 31.163 C 15.45 31.143 15.374 31.13 15.341 31.124 C 15.374 31.13 15.45 31.143 15.565 31.163 C 15.523 31.165 15.47 31.167 15.402 31.169 C 15.177 31.154 15.359 31.184 15.072 31.222 C 15.062 31.223 15.006 31.23 14.971 31.234 C 14.703 31.267 14.644 31.28 14.4 31.36 C 13.891 31.489 13.693 31.583 13.253 31.923 C 13.236 31.935 13.233 31.938 13.216 31.95 C 13.038 32.073 13.009 32.085 13.034 32.073 C 12.707 32.308 12.598 32.435 12.333 32.81 C 12.284 32.873 12.253 32.913 12.244 32.925 C 12.127 33.083 12.084 33.147 11.987 33.345 C 11.991 33.337 11.99 33.342 11.972 33.379 C 11.835 33.648 11.76 33.799 11.703 34.011 L 11.882 33.349 L 11.895 32.773 C 11.895 32.773 11.872 33.785 11.463 34.603 C 11.173 35.182 9.249 36.266 7.802 36.866 L 11.248 35.439 L 11.702 34.013 C 5.509 53.474 -2.68 91.364 12.772 132.043 C 26.176 168.922 52.181 189.796 62.205 197.982 C 69.553 203.995 76.454 208.642 83.212 212.497 L 86.428 214.332 L 84.922 217.71 C 74.207 241.729 68.928 266.938 68.928 293.544 C 68.928 345.466 89.705 391.766 123.842 425.903 C 157.979 460.04 204.279 480.817 256.202 480.817 C 288.609 480.817 320.077 472.645 348.1 456.756 C 349.422 456.215 349.653 455.616 350.018 454.308 C 350.382 453 350.494 452.367 349.643 451.222 C 349.102 449.902 348.502 449.669 347.194 449.305 C 345.886 448.94 345.253 448.828 344.107 449.68 C 317.55 464.587 286.843 472.693 256.202 472.693 C 208.113 472.693 163.651 453.205 131.612 422.153 C 99.573 391.101 78.939 347.331 77.167 299.63 L 76.471 280.898 L 84.894 297.62 C 98.203 324.043 124.727 341.251 156.238 341.251 C 177.515 341.251 197.287 333.186 212.277 318.395 L 216.792 313.94 L 218.975 319.925 C 219.454 321.237 219.947 322.591 220.419 323.97 C 220.449 324.1 220.502 324.186 220.643 324.468 L 221.003 325.193 L 221.058 326.002 C 221.837 337.427 225.288 358.607 230.174 377.458 C 234.375 393.737 238.606 405.052 243.29 412.496 C 247.762 419.603 251.252 422.053 256.201 422.053 C 261.15 422.053 264.64 419.603 269.112 412.496 C 273.796 405.052 278.027 393.737 282.228 377.458 C 287.278 357.978 290.794 336.024 291.413 324.929 L 291.444 324.37 L 291.626 323.839 C 292.01 322.717 292.41 321.631 292.787 320.586 L 294.933 314.649 L 299.456 319.013 C 314.385 333.419 333.884 341.251 354.856 341.251 C 387.444 341.251 414.753 322.85 427.514 294.965 L 435.687 277.108 L 435.31 296.773 C 434.853 320.643 429.71 344.134 420.153 365.868 C 419.417 367.091 419.59 367.71 420.08 368.977 C 420.571 370.243 420.861 370.818 422.228 371.226 C 422.872 371.565 423.166 371.575 423.864 371.575 C 424.848 371.575 425.233 371.461 426.062 370.931 C 426.9 370.395 427.254 370.143 427.582 369.154 C 438.228 345.168 443.474 319.997 443.474 293.544 C 443.474 266.85 438.159 241.593 427.391 217.536 L 425.881 214.164 L 429.09 212.323 C 435.754 208.5 442.555 203.906 449.793 197.985 C 459.818 189.798 485.822 168.925 499.226 132.045 C 514.68 91.364 506.491 53.476 500.3 34.019 Z M 414.495 106.959 C 434.49 98.373 453.011 86.142 470.438 70.102 L 488.76 53.24 L 476.796 75.079 C 472.818 82.341 468.222 89.337 463.201 95.752 C 438.745 126.525 408.701 139.372 380.025 150.246 L 377.79 151.093 L 375.957 149.565 C 369.166 143.906 362.132 138.847 354.678 134.247 L 346.811 129.391 L 355.697 126.834 C 372.371 122.035 397.234 114.416 414.495 106.959 Z M 366.534 132.186 C 371.01 135.24 372.858 136.5 379.337 141.753 C 406.209 131.514 432.168 120.95 454.479 93.579 C 442.712 101.98 430.405 108.99 417.735 114.473 C 400.054 122.084 382.57 127.405 366.534 132.186 Z M 96.237 104.83 C 114.766 112.834 142.061 121.029 158.547 125.707 L 167.627 128.283 L 159.541 133.148 C 151.383 138.056 143.705 143.512 136.33 149.669 L 134.497 151.201 L 132.26 150.353 C 103.496 139.455 73.336 126.625 48.799 95.753 C 43.339 88.775 38.4 81.12 34.177 73.148 L 23.059 52.164 L 40.557 68.218 C 57.909 84.138 76.343 96.286 96.237 104.83 Z M 55.274 90.749 C 78.154 120.334 104.309 131.013 132.936 141.857 C 139.271 136.655 141.89 134.867 147.583 131.057 C 131.091 126.208 111.968 120.51 92.997 112.344 C 79.976 106.708 67.337 99.461 55.274 90.749 Z M 156.24 333.125 C 136.657 333.125 118.118 324.815 105.291 311.989 C 92.465 299.162 84.155 280.623 84.155 261.04 C 84.155 247.424 88.201 233.839 95.358 222.441 L 97.18 219.539 L 100.368 220.854 C 108.52 224.219 116.211 226.617 123.661 228.947 C 124.583 229.234 125.501 229.522 126.415 229.81 L 131.315 231.35 L 128.74 235.745 C 125.452 241.354 123.963 247.203 123.963 253.813 C 123.963 264.169 127.832 272.777 134.669 279.614 C 141.506 286.451 150.114 290.32 160.47 290.32 C 172.05 290.32 182.334 285.463 189.285 276.204 L 192.511 271.907 L 195.781 276.256 C 201.806 284.27 207.27 293.334 211.937 303.074 L 213.087 305.474 L 211.379 307.471 C 197.722 323.435 177.434 333.125 156.24 333.125 Z M 203.397 304.211 C 199.478 296.239 196.743 291.738 192.153 285.179 C 183.789 293.345 173.858 298.504 160.47 298.504 C 148.44 298.504 136.749 293.267 128.883 285.4 C 121.016 277.534 115.779 265.843 115.779 253.813 C 115.779 247.834 117.098 241.723 119.431 236.197 C 112.789 234.116 107.202 232.322 100.503 229.72 C 95.011 239.288 92.339 248.57 92.339 261.04 C 92.339 278.948 99.28 294.405 111.078 306.202 C 122.875 318 138.332 324.941 156.24 324.941 C 175.698 324.941 191.276 317.817 203.397 304.211 Z M 132.087 253.814 C 132.087 247.953 134.218 241.767 137.6 237.002 C 137.62 236.968 137.545 237.081 137.691 236.855 L 139.454 234.132 L 142.561 235.349 C 153.014 239.444 163.839 245.111 175.085 254.412 C 178.477 257.241 181.793 260.344 184.897 263.54 L 188.433 267.181 L 184.259 269.773 C 183.767 270.08 183.59 270.229 183.281 270.705 C 177.921 277.565 169.161 282.197 160.469 282.197 C 152.935 282.197 145.321 278.789 140.408 273.876 C 135.495 268.963 132.087 261.349 132.087 253.814 Z M 146.195 268.089 C 150.079 271.973 154.61 274.013 160.469 274.013 C 167.058 274.013 172.372 271.664 176.253 266.464 C 174.181 264.453 172.066 262.544 169.849 260.701 C 160.397 252.777 151.608 247.936 142.625 244.195 C 140.97 247.111 140.271 250.208 140.271 253.814 C 140.271 259.674 142.311 264.206 146.195 268.089 Z M 216.876 294.751 C 207.186 275.848 195.106 260.453 180.283 248.168 C 161.071 231.974 143.63 226.68 126.087 221.193 C 108.439 215.674 89.505 209.599 67.345 191.689 C 57.404 183.571 33.498 163.686 20.389 129.213 C 11.923 106.125 11.164 83.482 13.209 65.623 L 14.968 50.256 L 21.035 64.484 C 26.706 77.783 33.761 89.77 42.405 100.765 C 69.398 135.678 103.47 148.194 134.314 159.813 C 162.275 170.346 187.342 180.132 205.32 203.657 C 221.411 225.511 227.989 256.038 224.588 293.26 L 223.305 307.293 Z M 198.764 208.555 C 182.622 186.41 159.391 178.004 131.43 167.471 C 100.586 155.852 64.736 142.032 35.965 105.813 C 27.015 94.37 24.927 90.359 20.353 81.875 C 20.221 95.561 19.849 104.579 28.059 126.363 C 39.922 159.092 62.58 177.233 72.521 185.351 C 93.313 202.525 110.881 207.864 128.529 213.383 C 146.072 218.87 164.911 224.924 185.519 241.879 C 200.942 254.781 207.212 259.403 217.322 278.96 C 218.259 249.473 214.131 228.809 198.764 208.555 Z M 275.28 371.782 C 267.922 401.072 261.333 410.029 259.059 412.279 L 256.203 415.104 L 253.347 412.279 C 251.073 410.029 244.484 401.072 237.124 371.78 C 231.872 350.327 229.019 329.056 229.019 321.947 C 229.019 314.744 232.293 307.43 236.989 302.734 C 241.685 298.038 248.999 294.764 256.202 294.764 C 261.82 294.764 267.642 296.756 271.874 299.761 C 276.114 302.772 279.725 307.565 281.663 312.5 L 281.793 312.832 L 281.863 313.25 C 282.301 315.863 282.787 318.492 283.31 321.176 L 283.387 321.57 L 283.386 321.961 C 283.364 329.081 280.531 350.339 275.28 371.782 Z M 275.2 322.342 C 274.703 319.783 274.303 317.641 273.853 314.963 C 272.505 311.316 270.414 308.761 267.136 306.433 C 263.85 304.099 260.494 302.948 256.202 302.948 C 250.673 302.948 246.442 304.854 242.775 308.52 C 239.109 312.187 237.203 316.418 237.203 321.947 C 237.203 328.514 239.902 348.811 245.072 369.83 C 251.722 397.63 253.534 397.936 256.203 402.528 C 258.871 397.936 260.684 397.63 267.332 369.832 C 272.501 348.823 275.113 329.3 275.2 322.342 Z M 272.773 290.781 C 267.69 288.007 262.357 286.639 256.202 286.639 C 249.89 286.639 244.429 288.074 239.256 290.983 L 232.704 294.666 L 233.202 287.137 C 235.642 250.196 228.637 221.018 211.829 198.794 C 195.618 176.713 174.065 166.519 149.958 157.086 L 143.082 154.395 L 149.001 149.998 C 179.706 127.187 217.699 114.498 256.203 114.392 C 294.669 114.499 332.574 127.148 363.255 149.896 L 369.189 154.295 L 362.299 156.987 C 338.09 166.443 316.441 176.633 300.172 198.794 C 283.398 220.972 276.386 250.078 278.784 286.916 L 279.266 294.326 Z M 293.616 193.896 C 311.385 170.499 330.421 161.249 352.37 152.158 C 324.089 132.782 293.373 122.471 256.203 122.576 C 218.995 122.47 188.189 132.818 159.876 152.259 C 181.733 161.333 200.68 170.581 218.385 193.896 C 235.891 217.604 242.752 245.779 241.674 281.008 C 246.251 279.397 248.812 278.455 256.202 278.455 C 263.411 278.455 265.861 279.374 270.32 280.879 C 269.264 245.709 276.144 217.556 293.616 193.896 Z M 354.857 333.125 C 333.975 333.125 313.972 323.705 300.347 308.184 L 298.597 306.19 L 299.747 303.763 C 304.111 294.551 309.191 285.939 314.759 278.259 L 317.801 274.062 L 321.133 277.952 C 328.114 286.104 337.709 290.319 348.495 290.319 C 358.851 290.319 367.459 286.45 374.296 279.613 C 381.133 272.776 385.002 264.168 385.002 253.812 C 385.002 247.496 383.639 241.903 380.631 236.481 L 378.228 232.151 L 382.985 230.634 C 384.762 230.067 386.548 229.506 388.338 228.946 C 395.575 226.682 403.04 224.352 410.936 221.137 L 414.13 219.837 L 415.939 222.749 C 422.972 234.074 426.862 247.545 426.943 261.04 C 426.763 280.623 418.633 299.162 405.806 311.989 C 392.979 324.815 374.44 333.125 354.857 333.125 Z M 400.02 306.202 C 411.817 294.405 418.938 278.948 418.759 261.04 C 418.84 248.681 417.324 240.284 410.759 230.003 C 403.74 232.695 398.019 234.492 390.782 236.756 C 388.997 237.314 390.183 236.943 389.885 237.037 C 391.993 242.324 393.186 246.486 393.186 253.812 C 393.186 265.842 387.949 277.533 380.082 285.399 C 372.216 293.266 360.525 298.503 348.495 298.503 C 336.007 298.503 326.802 294.011 318.653 286.934 C 314.659 292.787 312.199 296.927 308.308 304.845 C 320.386 318.038 335.691 324.941 354.857 324.941 C 372.765 324.941 388.222 318 400.02 306.202 Z M 325.648 265.053 C 329.189 261.288 333.002 257.675 336.915 254.411 C 347.282 245.83 357.321 240.333 366.984 236.34 L 370.094 235.054 L 371.917 237.81 C 374.95 242.395 376.878 248.261 376.878 253.813 C 376.878 261.347 373.47 268.961 368.557 273.874 C 363.644 278.788 356.03 282.196 348.495 282.196 C 339.803 282.196 331.046 277.565 325.685 270.706 C 325.689 270.699 325.646 270.661 325.495 270.482 L 323.153 267.707 Z M 334.072 268.106 C 337.801 272.159 342.647 274.012 348.495 274.012 C 354.355 274.012 358.887 271.972 362.77 268.088 C 366.654 264.204 368.694 259.673 368.694 253.813 C 368.694 249.485 368.183 247.894 366.886 245.276 C 358.743 248.881 351.856 252.568 342.151 260.699 C 339.331 263.043 336.667 265.491 334.072 268.106 Z M 491.612 129.212 C 478.504 163.685 454.598 183.57 444.655 191.688 C 422.495 209.597 403.561 215.672 385.913 221.191 C 368.37 226.678 350.928 231.972 331.717 248.166 C 316.893 260.452 304.815 275.843 295.124 294.75 L 288.695 307.293 L 287.412 293.259 C 284.011 256.036 290.589 225.51 306.682 203.656 C 324.66 180.13 349.726 170.343 377.687 159.81 C 408.532 148.191 442.602 135.674 469.596 100.762 C 478.241 89.767 485.295 77.78 490.966 64.481 L 497.034 50.251 L 498.793 65.62 C 500.836 83.482 500.077 106.125 491.612 129.212 Z M 491.647 81.873 C 487.074 90.357 484.987 94.367 476.036 105.812 C 447.264 142.028 411.416 155.849 380.571 167.468 C 352.61 178.001 329.38 186.408 313.238 208.554 C 297.869 228.808 293.741 249.471 294.678 278.958 C 303.619 264.544 311.057 254.78 326.481 241.878 C 347.088 224.923 365.928 218.868 383.471 213.381 C 401.119 207.862 418.685 202.523 439.479 185.35 C 449.422 177.232 472.08 159.091 483.942 126.362 C 492.151 104.579 491.779 95.561 491.647 81.873 Z" style=""/>
      <path d="M 503.54 133.648 C 489.435 171.509 462.729 193.363 452.704 201.55 C 445.3 207.595 438.468 212.214 431.782 216.084 C 442.576 240.479 448.077 266.372 448.077 293.544 C 448.077 320.471 442.586 346.569 431.794 371.011 C 431.078 372.603 429.904 373.939 428.54 374.81 C 427.174 375.683 425.502 376.178 423.864 376.178 C 422.714 376.178 421.491 375.928 420.367 375.437 C 418.221 374.464 416.574 372.67 415.788 370.639 C 415.001 368.608 415.01 366.172 415.942 364.008 C 425.356 342.712 429.969 321.616 430.652 299.032 C 416.685 326.704 388.743 345.854 354.856 345.854 C 333.013 345.854 312.436 337.423 296.851 322.883 C 296.468 323.941 296.352 324.244 296.005 325.26 C 295.35 336.61 291.779 358.918 286.684 378.611 C 282.412 395.117 277.941 407.108 273.008 414.947 C 268.05 422.828 262.451 426.656 256.201 426.656 C 249.951 426.656 244.352 422.828 239.394 414.947 C 234.461 407.108 229.99 395.117 225.718 378.611 C 220.788 359.553 217.29 338.08 216.473 326.42 C 216.327 326.121 216.192 325.833 216.064 325.46 C 215.608 324.125 215.308 323.307 214.92 322.24 C 199.206 337.508 178.397 345.854 156.238 345.854 C 123.461 345.854 96.284 327.924 81.855 301.704 C 83.957 347.601 103.354 388.356 134.816 418.848 C 166.277 449.34 209.037 468.09 256.202 468.09 C 286.26 468.09 315.837 460.356 341.846 445.671 C 343.909 444.532 346.332 444.286 348.43 444.871 C 350.528 445.455 352.474 446.919 353.651 448.96 C 354.79 451.023 355.036 453.446 354.452 455.544 C 353.867 457.642 352.403 459.588 350.362 460.765 C 321.791 476.876 289.192 485.42 256.202 485.42 C 203.337 485.42 155.303 463.873 120.587 429.158 C 85.872 394.442 64.325 346.408 64.325 293.544 C 64.325 266.462 69.789 240.62 80.528 216.264 C 73.747 212.361 66.811 207.686 59.294 201.547 C 49.27 193.361 22.563 171.506 8.458 133.646 C -7.091 91.697 1.062 52.308 7.315 32.619 L 7.371 32.442 L 7.375 32.44 C 7.501 32.08 7.656 31.723 7.821 31.39 C 7.842 31.346 7.866 31.295 7.893 31.242 C 8.091 30.865 8.334 30.478 8.585 30.132 C 8.611 30.098 8.634 30.069 8.654 30.043 C 9.085 29.472 9.613 28.915 10.205 28.443 C 10.333 28.344 10.457 28.263 10.561 28.189 C 10.578 28.177 10.597 28.164 10.614 28.152 C 11.372 27.625 12.224 27.214 13.069 26.954 C 13.492 26.828 13.945 26.731 14.376 26.67 C 14.423 26.664 14.475 26.657 14.525 26.652 C 14.938 26.603 15.406 26.579 15.83 26.588 C 15.837 26.588 15.847 26.587 15.859 26.586 C 15.953 26.598 15.983 26.606 15.945 26.596 C 16.353 26.614 16.789 26.667 17.19 26.741 C 17.202 26.746 17.25 26.75 17.329 26.765 C 17.727 26.849 18.131 26.968 18.51 27.104 C 18.586 27.131 18.662 27.16 18.734 27.187 C 19.108 27.334 19.493 27.514 19.849 27.715 C 19.905 27.748 19.942 27.773 19.965 27.786 C 20.3 27.984 20.637 28.215 20.947 28.46 C 20.968 28.478 21.009 28.507 21.058 28.545 C 21.366 28.799 21.667 29.087 21.94 29.383 C 22.008 29.458 22.069 29.53 22.124 29.594 C 22.194 29.673 22.282 29.767 22.371 29.876 C 45.641 59.336 72.155 80.597 101.278 93.142 C 127.865 104.61 175.199 117.092 175.675 117.217 C 176.642 117.476 177.372 117.824 178.097 118.28 C 202.477 107.425 229.016 101.666 256.202 101.666 C 284.025 101.666 311.213 107.713 336.066 119.079 C 343.082 117.202 384.809 105.901 409.454 95.272 C 438.574 82.728 465.087 61.469 488.357 32.008 C 488.423 31.929 488.421 31.934 488.444 31.909 C 489.085 30.403 490.137 29.085 491.456 28.156 C 492.775 27.226 494.438 26.654 496.14 26.586 C 498.051 26.528 499.948 27.116 501.427 28.163 C 502.906 29.211 504.093 30.808 504.687 32.624 C 510.937 52.308 519.091 91.697 503.54 133.648 Z M 503.712 32.934 C 503.198 31.27 502.188 29.956 500.836 28.998 C 499.483 28.04 497.914 27.527 496.177 27.608 C 494.628 27.647 493.251 28.143 492.045 28.992 C 490.84 29.841 489.919 30.964 489.358 32.374 L 489.328 32.45 L 489.28 32.505 C 489.217 32.58 489.175 32.617 489.163 32.638 C 465.813 62.181 439.096 83.596 409.859 96.212 C 385.145 106.865 342.606 118.391 336.152 120.115 L 335.974 120.163 L 335.807 120.086 C 311.011 108.704 283.914 102.688 256.202 102.688 C 229.124 102.688 202.609 108.432 178.26 119.327 L 177.998 119.444 L 177.764 119.283 C 177.051 118.795 176.292 118.432 175.415 118.207 C 174.939 118.082 127.532 105.574 100.872 94.082 C 71.633 81.465 44.919 60.052 21.569 30.51 C 21.51 30.435 21.44 30.364 21.353 30.266 C 21.293 30.196 21.24 30.132 21.188 30.077 C 20.937 29.803 20.688 29.563 20.41 29.337 C 20.389 29.319 20.358 29.298 20.311 29.262 C 20.029 29.037 19.752 28.846 19.447 28.668 C 19.396 28.637 19.363 28.614 19.345 28.605 C 19.023 28.422 18.707 28.274 18.364 28.141 C 18.296 28.115 18.234 28.091 18.168 28.068 C 17.818 27.941 17.476 27.84 17.118 27.766 C 17.104 27.76 17.052 27.756 16.972 27.741 C 16.607 27.671 16.271 27.633 15.901 27.618 C 15.807 27.606 15.79 27.6 15.814 27.606 C 15.799 27.606 15.839 27.605 15.758 27.607 C 15.372 27.595 15.036 27.62 14.644 27.668 C 14.602 27.672 14.555 27.678 14.51 27.684 C 14.116 27.739 13.747 27.818 13.364 27.934 C 12.593 28.164 11.888 28.505 11.2 28.99 C 11.183 29.002 11.168 29.013 11.151 29.025 C 11.031 29.109 10.927 29.176 10.835 29.249 C 10.299 29.67 9.865 30.132 9.47 30.66 C 9.444 30.694 9.42 30.724 9.401 30.749 C 9.171 31.065 8.978 31.372 8.801 31.713 C 8.783 31.749 8.765 31.786 8.742 31.835 C 8.562 32.197 8.408 32.554 8.291 32.928 L 8.313 32.857 L 8.314 32.773 C 8.314 32.773 8.312 32.9 8.26 33.002 C 8.224 33.075 7.983 33.211 7.802 33.285 L 8.233 33.108 L 8.289 32.929 C 2.05 52.567 -6.111 91.623 9.416 133.29 C 23.365 170.932 49.917 192.569 59.941 200.755 C 67.421 206.866 74.566 211.681 81.436 215.606 L 81.837 215.835 L 81.649 216.258 C 70.82 240.633 65.347 266.568 65.347 293.544 C 65.347 346.199 86.723 393.847 121.311 428.434 C 155.898 463.021 203.547 484.398 256.202 484.398 C 289.062 484.398 321.411 475.936 349.86 459.875 C 351.741 458.838 352.931 457.191 353.466 455.269 C 354.002 453.347 353.835 451.322 352.761 449.462 C 351.724 447.582 350.077 446.392 348.155 445.856 C 346.233 445.32 344.208 445.487 342.348 446.561 C 316.217 461.296 286.39 469.112 256.202 469.112 C 208.832 469.112 165.694 450.199 134.104 419.582 C 102.514 388.966 82.344 346.502 80.745 299.51 L 80.667 297.227 L 81.711 299.259 C 95.627 326.357 123.743 344.832 156.238 344.832 C 178.201 344.832 199.222 336.123 214.774 320.96 L 215.34 320.409 L 215.611 321.152 C 216.09 322.465 216.572 323.785 217.032 325.128 C 217.138 325.447 217.279 325.743 217.434 326.057 L 217.479 326.148 L 217.486 326.249 C 218.285 337.838 221.788 359.343 226.708 378.355 C 230.965 394.811 235.383 406.651 240.26 414.402 C 245.11 422.112 250.241 425.634 256.201 425.634 C 262.161 425.634 267.292 422.112 272.142 414.402 C 277.019 406.651 281.437 394.811 285.694 378.355 C 290.779 358.709 294.349 336.408 294.987 325.132 L 294.991 325.062 L 295.014 324.996 C 295.383 323.915 295.773 322.859 296.154 321.803 L 296.42 321.066 L 296.988 321.607 C 312.473 336.372 333.207 344.832 354.856 344.832 C 388.455 344.832 417.384 325.087 430.756 296.485 L 431.773 294.31 L 431.73 296.711 C 431.314 320.229 426.324 343.028 416.878 364.422 C 415.99 366.377 416.021 368.408 416.742 370.269 C 417.463 372.131 418.808 373.654 420.781 374.501 C 421.798 374.958 422.814 375.156 423.864 375.156 C 425.356 375.156 426.743 374.745 427.989 373.948 C 429.237 373.151 430.229 372.056 430.858 370.599 C 441.618 346.257 447.055 320.365 447.055 293.544 C 447.055 266.478 441.545 240.493 430.661 216.079 L 430.473 215.657 L 430.873 215.428 C 437.648 211.535 444.69 206.775 452.057 200.758 C 462.083 192.571 488.633 170.935 502.582 133.292 C 518.111 91.623 509.949 52.567 503.712 32.934 Z M 415.913 110.246 C 436.185 101.511 455.208 88.954 472.86 72.739 L 475.141 70.644 L 473.655 73.361 C 469.751 80.499 465.317 87.25 460.383 93.544 C 436.646 123.769 407.375 136.047 378.755 146.898 L 378.476 147.004 L 378.247 146.813 C 371.356 141.077 364.118 135.871 356.56 131.201 L 355.578 130.594 L 356.688 130.275 C 373.391 125.467 398.468 117.771 415.913 110.246 Z M 358.075 130.939 C 365.294 135.458 371.752 140.078 378.671 145.836 C 407.185 135.018 436.046 122.981 459.579 92.912 C 464.487 86.654 467.735 81.688 471.231 75.595 C 454.166 90.851 436.669 102.407 416.317 111.186 C 398.82 118.729 374.775 126.111 358.075 130.939 Z M 94.82 108.117 C 113.542 116.192 141.056 124.465 157.57 129.151 L 158.704 129.473 L 157.694 130.081 C 149.422 135.064 141.522 140.678 134.038 146.92 L 133.808 147.111 L 133.529 147.005 C 104.818 136.128 75.433 123.868 51.617 93.544 C 46.252 86.7 41.487 79.313 37.342 71.475 L 35.961 68.864 L 38.139 70.859 C 55.715 86.954 74.65 99.425 94.819 108.117 Z M 39.661 73.613 C 43.439 80.437 47.084 86.108 52.421 92.912 C 76.031 123.08 104.917 135.072 133.612 145.943 C 141.047 139.762 148.22 134.666 156.162 129.814 C 139.537 125.075 113.192 117.152 94.414 109.057 C 74.166 100.321 56.681 88.799 39.661 73.613 Z M 156.24 329.544 C 137.39 329.544 120.199 321.833 107.823 309.457 C 95.447 297.081 87.736 279.89 87.736 261.04 C 87.736 247.925 91.43 235.301 98.379 224.363 L 98.608 224.002 L 99.005 224.165 C 107.304 227.582 115.143 230.034 122.593 232.364 C 123.513 232.651 124.428 232.938 125.341 233.225 L 125.948 233.416 L 125.632 233.967 C 122.168 240.005 120.382 246.742 120.382 253.813 C 120.382 264.901 124.85 274.858 132.137 282.146 C 139.425 289.433 149.382 293.901 160.47 293.901 C 172.841 293.901 184.537 288.168 192.109 278.404 L 192.519 277.876 L 192.921 278.41 C 198.843 286.271 204.122 295.03 208.707 304.618 L 208.85 304.916 L 208.638 305.168 C 195.592 320.662 176.674 329.544 156.24 329.544 Z M 207.642 304.762 C 203.118 295.342 198.231 287.233 192.501 279.555 C 184.738 289.151 173.067 294.923 160.47 294.923 C 149.172 294.923 138.83 290.285 131.414 282.869 C 123.998 275.453 119.36 265.111 119.36 253.813 C 119.36 246.61 121.121 240.036 124.434 234.012 C 123.721 233.788 123.207 233.627 122.289 233.34 C 114.838 231.01 107.207 228.622 99.013 225.274 C 92.273 235.994 88.758 248.069 88.758 261.04 C 88.758 279.681 96.298 296.486 108.546 308.734 C 120.794 320.982 137.599 328.522 156.24 328.522 C 176.458 328.522 194.771 320.122 207.642 304.762 Z M 135.668 253.814 C 135.668 248.51 137.361 243.384 140.484 239.123 C 140.532 239.061 140.579 238.977 140.649 238.872 L 140.876 238.534 L 141.258 238.684 C 151.537 242.7 161.868 248.075 172.794 257.163 C 176.107 259.923 179.284 262.897 182.327 266.033 L 182.753 266.471 L 182.247 266.812 C 181.542 267.288 180.934 267.851 180.406 268.572 C 175.677 274.9 168.355 278.616 160.469 278.616 C 153.668 278.616 147.403 275.807 142.94 271.344 C 138.477 266.882 135.668 260.616 135.668 253.814 Z M 143.663 270.621 C 147.997 274.955 153.877 277.594 160.469 277.594 C 168.125 277.594 175.036 274.138 179.584 267.962 C 180.175 267.171 180.598 266.788 181.184 266.326 C 178.285 263.363 175.431 260.689 172.14 257.949 C 161.439 249.033 151.368 243.762 141.266 239.786 C 138.245 243.89 136.69 248.693 136.69 253.814 C 136.69 260.407 139.329 266.287 143.663 270.621 Z M 220.059 293.112 C 210.186 273.923 197.659 257.971 182.574 245.417 C 162.751 228.89 144.698 223.263 127.155 217.776 C 109.507 212.257 91.171 206.504 69.61 188.916 C 59.668 180.798 36.309 161.676 23.745 127.966 C 15.391 105.449 14.731 83.634 16.765 66.034 L 16.986 64.121 L 17.743 65.892 C 23.517 79.395 30.81 91.783 39.588 102.973 C 67.358 138.458 102.208 151.544 133.052 163.163 C 161.013 173.696 185.277 182.879 202.452 205.8 C 218.226 226.954 224.456 256.243 221.023 292.926 L 220.86 294.669 Z M 201.632 206.412 C 184.687 183.663 160.653 174.654 132.692 164.121 C 101.848 152.502 66.776 139.252 38.783 103.605 C 29.966 92.357 23.376 81.626 17.572 68.065 C 15.806 85.236 16.381 105.255 24.703 127.61 C 37.111 161.102 60.316 180.006 70.257 188.124 C 91.647 205.62 109.813 211.281 127.461 216.8 C 145.004 222.287 163.231 228.008 183.228 244.631 C 198.389 257.263 210.36 272.509 220.162 291.095 C 223.249 255.384 217.316 227.366 201.632 206.412 Z M 271.803 370.929 C 264.755 399.566 258.656 407.668 256.56 409.715 L 256.203 410.064 L 255.846 409.715 C 253.75 407.668 247.651 399.566 240.601 370.927 C 235.385 349.664 232.6 328.819 232.6 321.947 C 232.6 315.476 235.275 309.511 239.52 305.265 C 243.766 301.02 249.731 298.345 256.202 298.345 C 261.24 298.345 265.983 299.969 269.801 302.68 C 273.62 305.392 276.635 309.288 278.307 313.749 L 278.324 313.794 L 278.332 313.842 C 278.776 316.484 279.269 319.16 279.796 321.861 L 279.806 321.91 L 279.805 321.959 C 279.799 328.843 277.018 349.676 271.803 370.929 Z M 278.782 322.008 C 278.259 319.318 277.774 316.694 277.332 314.059 C 275.731 309.755 272.908 306.141 269.209 303.514 C 265.509 300.886 261.074 299.367 256.202 299.367 C 249.941 299.367 244.361 301.872 240.244 305.989 C 236.127 310.106 233.622 315.686 233.622 321.947 C 233.622 328.751 236.389 349.474 241.595 370.683 C 248.555 399.136 253.882 406.104 256.203 408.616 C 258.524 406.104 263.851 399.136 270.809 370.685 C 276.014 349.486 278.768 328.874 278.782 322.008 Z M 274.459 287.623 C 268.994 284.698 262.818 283.058 256.202 283.058 C 249.418 283.058 243.095 284.779 237.531 287.845 L 236.715 288.295 L 236.775 287.365 C 239.168 249.887 231.811 219.524 214.697 196.651 C 197.833 174.03 175.498 163.241 151.264 153.752 L 150.407 153.417 L 151.144 152.866 C 181.345 130.319 218.266 117.986 256.203 117.973 C 294.102 117.987 330.937 130.281 361.115 152.766 L 361.854 153.317 L 360.995 153.652 C 336.661 163.164 314.229 173.949 297.304 196.651 C 280.224 219.478 272.86 249.767 275.21 287.14 L 275.268 288.056 Z M 296.484 196.039 C 313.597 173.183 335.393 162.564 359.763 153.037 C 329.87 130.977 293.94 118.983 256.203 118.995 C 218.428 118.982 182.412 131.014 152.495 153.137 C 176.439 162.565 198.465 173.264 215.517 196.039 C 232.717 219.098 240.054 249.301 237.851 286.515 C 243.337 283.671 249.284 282.036 256.202 282.036 C 262.95 282.036 268.752 283.593 274.135 286.304 C 271.973 249.187 279.318 219.05 296.484 196.039 Z M 354.857 329.544 C 334.726 329.544 316.078 320.911 303.059 305.846 L 302.841 305.594 L 302.984 305.293 C 307.272 296.226 312.181 287.901 317.655 280.363 L 318.03 279.847 L 318.452 280.325 C 326.029 288.918 336.964 293.9 348.495 293.9 C 359.583 293.9 369.54 289.432 376.828 282.145 C 384.115 274.857 388.583 264.9 388.583 253.812 C 388.583 247.054 386.947 240.608 383.778 234.776 L 383.483 234.233 L 384.073 234.045 C 385.843 233.48 387.619 232.922 389.407 232.363 C 396.644 230.099 404.248 227.719 412.284 224.454 L 412.681 224.293 L 412.909 224.656 C 419.737 235.524 423.352 248.042 423.362 261.04 C 423.34 279.89 415.651 297.081 403.274 309.457 C 390.898 321.833 373.707 329.544 354.857 329.544 Z M 402.551 308.734 C 414.799 296.486 422.361 279.681 422.34 261.04 C 422.35 248.184 419.04 236.301 412.27 225.563 C 404.342 228.76 396.95 231.075 389.713 233.339 C 387.925 233.898 386.542 234.333 384.967 234.833 C 387.995 240.645 389.605 246.928 389.605 253.812 C 389.605 265.11 384.967 275.452 377.551 282.868 C 370.135 290.284 359.793 294.922 348.495 294.922 C 336.752 294.922 325.86 290.195 318.113 281.476 C 312.82 288.827 308.283 296.521 304.051 305.43 C 316.886 320.208 334.94 328.522 354.857 328.522 C 373.498 328.522 390.303 320.982 402.551 308.734 Z M 328.258 267.504 C 331.726 263.812 335.378 260.35 339.206 257.162 C 349.283 248.778 358.858 243.56 368.347 239.65 L 368.731 239.492 L 368.964 239.834 C 371.765 243.942 373.297 248.797 373.297 253.813 C 373.297 260.615 370.488 266.88 366.025 271.343 C 361.563 275.806 355.297 278.615 348.495 278.615 C 340.609 278.615 333.287 274.899 328.558 268.571 C 328.465 268.444 328.358 268.324 328.239 268.183 L 327.947 267.835 Z M 329.314 267.874 C 329.322 267.885 329.341 267.909 329.38 267.961 C 333.927 274.137 340.839 277.593 348.495 277.593 C 355.088 277.593 360.968 274.954 365.302 270.62 C 369.636 266.285 372.275 260.405 372.275 253.813 C 372.275 248.949 370.936 244.646 368.352 240.755 C 359.041 244.622 349.855 249.62 339.86 257.948 C 336.058 261.114 332.761 264.204 329.314 267.874 Z M 488.256 127.965 C 475.693 161.675 452.334 180.797 442.391 188.915 C 420.828 206.502 402.493 212.255 384.845 217.774 C 367.302 223.261 349.248 228.888 329.426 245.415 C 314.34 257.97 301.815 273.918 291.941 293.111 L 291.14 294.668 L 290.977 292.925 C 287.544 256.241 293.774 226.953 309.55 205.799 C 326.725 182.877 350.988 173.693 378.949 163.16 C 409.794 151.541 444.642 138.454 472.414 102.971 C 481.192 91.779 488.483 79.392 494.258 65.889 L 495.015 64.118 L 495.236 66.031 C 497.269 83.634 496.609 105.449 488.256 127.965 Z M 494.429 68.062 C 488.749 80.942 482.036 92.355 473.218 103.603 C 445.224 139.248 410.154 152.499 379.309 164.118 C 351.348 174.651 327.315 183.661 310.37 206.411 C 294.684 227.365 288.751 255.382 291.838 291.094 C 301.641 272.504 313.61 257.262 328.772 244.629 C 348.768 228.006 366.996 222.285 384.539 216.798 C 402.187 211.279 420.352 205.618 441.743 188.123 C 451.686 180.005 474.891 161.101 487.298 127.609 C 495.619 105.255 496.458 85.591 494.429 68.062 Z" style="fill: none;"/>
    </g>
  </g>
</svg>